<?xml version="1.0" encoding="utf-8"?>
<!-- Generator: Adobe Illustrator 23.0.1, SVG Export Plug-In . SVG Version: 6.00 Build 0)  -->
<svg version="1.1" xmlns="http://www.w3.org/2000/svg" xmlns:xlink="http://www.w3.org/1999/xlink" x="0px" y="0px"
	 viewBox="0 0 628.59 751.63" style="enable-background:new 0 0 628.59 751.63;" xml:space="preserve">
<style type="text/css">
	.st0{fill:#FFFFFF;}
</style>
<g id="Layer_1">
</g>
<g id="Isolation_Mode">
</g>
<g id="Layer_4">
	<path class="st0" d="M521.43,110.91h-48.1V59.96v0C473.34,26.84,446.49,0,413.38,0H86.47C53.35,0,26.51,26.84,26.51,59.96v571.87
		C11.1,637.05,0,651.52,0,668.61v44.14c0,21.47,17.51,38.88,50.39,38.88h421.63c10.31,0,27.82-17.41,27.82-38.88v-44.14
		c0-17.08-11.1-31.56-26.51-36.78v-79.2h48.1c59.09,0,107.16-47.8,107.16-106.54V217.45C628.59,158.7,580.52,110.91,521.43,110.91z
		 M151.62,642.3l-57.55,0c-21.6,0-39.1-17.41-39.1-38.88V66.49c0-21.47,17.5-38.87,39.09-38.88l57.56,0l196.61,0l57.55,0
		c21.6,0,39.1,17.41,39.1,38.88v475.08v61.84c0,21.47-17.5,38.87-39.09,38.88l-57.56,0L151.62,642.3z M560.16,446.09
		c0,21.23-17.37,38.5-38.73,38.5h-48.1V178.95h48.1c21.36,0,38.73,17.27,38.73,38.51V446.09z"/>
	<path class="st0" d="M119.48,136L119.48,136c-19.61,0-35.52,15.9-35.52,35.52v392.19c0,14.03,8.14,26.16,19.96,31.93
		c-5.28-6.2-8.48-14.23-8.48-23.02V180.43c0-19.61,15.9-35.52,35.52-35.52h0c5.58,0,10.86,1.29,15.56,3.59
		C140,140.86,130.31,136,119.48,136z M358.37,136L358.37,136c-19.61,0-35.52,15.9-35.52,35.52v392.19
		c0,14.03,8.14,26.16,19.96,31.93c-5.28-6.2-8.48-14.23-8.48-23.02V180.43c0-19.61,15.9-35.52,35.52-35.52h0
		c5.58,0,10.86,1.29,15.56,3.59C378.89,140.86,369.2,136,358.37,136z M238.92,136L238.92,136c-19.61,0-35.52,15.9-35.52,35.52
		v392.19c0,14.03,8.14,26.16,19.96,31.93c-5.28-6.2-8.48-14.23-8.48-23.02V180.43c0-19.61,15.9-35.52,35.52-35.52h0
		c5.58,0,10.86,1.29,15.56,3.59C259.44,140.86,249.75,136,238.92,136z"/>
</g>
<g id="Layer_3">
</g>
</svg>
